<svg width="82" height="38" viewBox="0 0 82 38" fill="none" xmlns="http://www.w3.org/2000/svg">
<path d="M4.02808 28.224C3.44941 28.224 3.00141 28.0653 2.68408 27.748C2.38541 27.412 2.23608 26.9547 2.23608 26.376V10.08C2.23608 9.48267 2.39474 9.03467 2.71208 8.736C3.02941 8.41867 3.47741 8.26 4.05608 8.26H10.8041C12.9694 8.26 14.6401 8.80133 15.8161 9.884C16.9921 10.9667 17.5801 12.4787 17.5801 14.42C17.5801 16.3613 16.9921 17.8827 15.8161 18.984C14.6401 20.0667 12.9694 20.608 10.8041 20.608H5.82008V26.376C5.82008 26.9547 5.67075 27.412 5.37208 27.748C5.07341 28.0653 4.62541 28.224 4.02808 28.224ZM5.82008 17.78H10.2441C11.5134 17.78 12.4747 17.5 13.1281 16.94C13.7814 16.3613 14.1081 15.5213 14.1081 14.42C14.1081 13.3187 13.7814 12.488 13.1281 11.928C12.4747 11.368 11.5134 11.088 10.2441 11.088H5.82008V17.78ZM25.7261 28.28C24.3074 28.28 23.0754 27.9907 22.0301 27.412C20.9848 26.8333 20.1728 26.012 19.5941 24.948C19.0154 23.8653 18.7261 22.596 18.7261 21.14C18.7261 20.0387 18.8848 19.0587 19.2021 18.2C19.5381 17.3227 20.0141 16.576 20.6301 15.96C21.2461 15.3253 21.9834 14.8493 22.8421 14.532C23.7008 14.196 24.6621 14.028 25.7261 14.028C27.1448 14.028 28.3768 14.3173 29.4221 14.896C30.4674 15.4747 31.2794 16.296 31.8581 17.36C32.4368 18.424 32.7261 19.684 32.7261 21.14C32.7261 22.2413 32.5581 23.2307 32.2221 24.108C31.9048 24.9853 31.4381 25.7413 30.8221 26.376C30.2061 26.992 29.4688 27.468 28.6101 27.804C27.7514 28.1213 26.7901 28.28 25.7261 28.28ZM25.7261 25.62C26.4168 25.62 27.0234 25.452 27.5461 25.116C28.0688 24.78 28.4701 24.2853 28.7501 23.632C29.0488 22.96 29.1981 22.1293 29.1981 21.14C29.1981 19.6467 28.8808 18.536 28.2461 17.808C27.6114 17.0613 26.7714 16.688 25.7261 16.688C25.0354 16.688 24.4288 16.856 23.9061 17.192C23.3834 17.5093 22.9728 18.004 22.6741 18.676C22.3941 19.3293 22.2541 20.1507 22.2541 21.14C22.2541 22.6147 22.5714 23.7347 23.2061 24.5C23.8408 25.2467 24.6808 25.62 25.7261 25.62ZM40.2909 28.28C38.7416 28.28 37.5749 27.8413 36.7909 26.964C36.0069 26.068 35.6149 24.7613 35.6149 23.044V9.8C35.6149 9.22133 35.7643 8.78267 36.0629 8.484C36.3616 8.18533 36.7909 8.036 37.3509 8.036C37.9109 8.036 38.3403 8.18533 38.6389 8.484C38.9563 8.78267 39.1149 9.22133 39.1149 9.8V22.876C39.1149 23.7347 39.2923 24.3693 39.6469 24.78C40.0203 25.1907 40.5429 25.396 41.2149 25.396C41.3643 25.396 41.5043 25.396 41.6349 25.396C41.7656 25.3773 41.8963 25.3587 42.0269 25.34C42.2883 25.3027 42.4656 25.3773 42.5589 25.564C42.6523 25.732 42.6989 26.0867 42.6989 26.628C42.6989 27.0947 42.6056 27.4587 42.4189 27.72C42.2323 27.9813 41.9243 28.14 41.4949 28.196C41.3083 28.2147 41.1123 28.2333 40.9069 28.252C40.7016 28.2707 40.4963 28.28 40.2909 28.28ZM49.2323 28.28C47.683 28.28 46.5163 27.8413 45.7323 26.964C44.9483 26.068 44.5563 24.7613 44.5563 23.044V9.8C44.5563 9.22133 44.7057 8.78267 45.0043 8.484C45.303 8.18533 45.7323 8.036 46.2923 8.036C46.8523 8.036 47.2817 8.18533 47.5803 8.484C47.8977 8.78267 48.0563 9.22133 48.0563 9.8V22.876C48.0563 23.7347 48.2337 24.3693 48.5883 24.78C48.9617 25.1907 49.4843 25.396 50.1563 25.396C50.3057 25.396 50.4457 25.396 50.5763 25.396C50.707 25.3773 50.8377 25.3587 50.9683 25.34C51.2297 25.3027 51.407 25.3773 51.5003 25.564C51.5937 25.732 51.6403 26.0867 51.6403 26.628C51.6403 27.0947 51.547 27.4587 51.3603 27.72C51.1737 27.9813 50.8657 28.14 50.4363 28.196C50.2497 28.2147 50.0537 28.2333 49.8483 28.252C49.643 28.2707 49.4377 28.28 49.2323 28.28ZM60.109 28.28C58.5597 28.28 57.225 27.9907 56.105 27.412C54.985 26.8333 54.117 26.012 53.501 24.948C52.9037 23.884 52.605 22.624 52.605 21.168C52.605 19.7493 52.8943 18.508 53.473 17.444C54.0703 16.38 54.8823 15.5493 55.909 14.952C56.9543 14.336 58.1397 14.028 59.465 14.028C60.4357 14.028 61.3037 14.1867 62.069 14.504C62.853 14.8213 63.5157 15.2787 64.057 15.876C64.617 16.4733 65.037 17.2013 65.317 18.06C65.6157 18.9 65.765 19.852 65.765 20.916C65.765 21.252 65.6437 21.5133 65.401 21.7C65.177 21.868 64.8503 21.952 64.421 21.952H55.433V19.936H63.301L62.853 20.356C62.853 19.4973 62.7223 18.7787 62.461 18.2C62.2183 17.6213 61.8543 17.1827 61.369 16.884C60.9023 16.5667 60.3143 16.408 59.605 16.408C58.821 16.408 58.149 16.5947 57.589 16.968C57.0477 17.3227 56.6277 17.836 56.329 18.508C56.049 19.1613 55.909 19.9453 55.909 20.86V21.056C55.909 22.5867 56.2637 23.7347 56.973 24.5C57.701 25.2467 58.765 25.62 60.165 25.62C60.6503 25.62 61.1917 25.564 61.789 25.452C62.405 25.3213 62.9837 25.1067 63.525 24.808C63.917 24.584 64.2623 24.4907 64.561 24.528C64.8597 24.5467 65.093 24.6493 65.261 24.836C65.4477 25.0227 65.5597 25.256 65.597 25.536C65.6343 25.7973 65.5783 26.068 65.429 26.348C65.2983 26.628 65.065 26.8707 64.729 27.076C64.0757 27.4867 63.3197 27.7947 62.461 28C61.621 28.1867 60.837 28.28 60.109 28.28ZM69.4068 28.14C68.9961 28.14 68.6508 28.028 68.3708 27.804C68.1094 27.5613 67.9694 27.2533 67.9508 26.88C67.9508 26.5067 68.1094 26.1147 68.4268 25.704L72.9628 20.104V21.756L68.7068 16.52C68.3708 16.1093 68.2121 15.7173 68.2308 15.344C68.2494 14.9707 68.3894 14.672 68.6508 14.448C68.9308 14.2053 69.2761 14.084 69.6868 14.084C70.1161 14.084 70.4708 14.1587 70.7508 14.308C71.0494 14.4573 71.3201 14.6907 71.5628 15.008L74.9228 19.32H73.6908L77.0788 15.008C77.3401 14.6907 77.6108 14.4573 77.8908 14.308C78.1708 14.1587 78.5161 14.084 78.9268 14.084C79.3561 14.084 79.7014 14.2053 79.9628 14.448C80.2241 14.6907 80.3548 14.9987 80.3548 15.372C80.3734 15.7453 80.2148 16.1373 79.8788 16.548L75.6508 21.728V20.16L80.1868 25.704C80.5228 26.096 80.6814 26.4787 80.6628 26.852C80.6441 27.2253 80.4948 27.5333 80.2148 27.776C79.9534 28.0187 79.6081 28.14 79.1788 28.14C78.7681 28.14 78.4228 28.0653 78.1428 27.916C77.8628 27.7667 77.5921 27.5333 77.3308 27.216L73.6908 22.624H74.8668L71.2548 27.216C71.0121 27.5147 70.7508 27.748 70.4708 27.916C70.1908 28.0653 69.8361 28.14 69.4068 28.14Z" fill="#3883FD"/>
<line x1="3.5" y1="36.5" x2="38.5132" y2="36.5" stroke="#3883FD" stroke-width="3" stroke-linecap="round"/>
</svg>
